<svg width="18" height="18" viewBox="0 0 18 18" fill="none" xmlns="http://www.w3.org/2000/svg">
<path id="Icon" fill-rule="evenodd" clip-rule="evenodd" d="M9 1.5C4.85786 1.5 1.5 4.85786 1.5 9C1.5 13.1421 4.85786 16.5 9 16.5C13.1421 16.5 16.5 13.1421 16.5 9C16.5 4.85786 13.1421 1.5 9 1.5ZM0 9C0 4.02944 4.02944 0 9 0C13.9706 0 18 4.02944 18 9C18 13.9706 13.9706 18 9 18C4.02944 18 0 13.9706 0 9ZM8.75 4C9.16421 4 9.5 4.33579 9.5 4.75V8.5H11.25C11.6642 8.5 12 8.83579 12 9.25C12 9.66421 11.6642 10 11.25 10H8.75C8.33579 10 8 9.66421 8 9.25V4.75C8 4.33579 8.33579 4 8.75 4Z" fill="black"/>
</svg>
