<svg width="18" height="18" viewBox="0 0 18 18" fill="none" xmlns="http://www.w3.org/2000/svg">
<g id="globe" clip-path="url(#clip0_96_472)">
<path id="Icon" fill-rule="evenodd" clip-rule="evenodd" d="M2.28332 8.32499H5.41151C5.47493 6.47481 5.79719 4.78803 6.30368 3.50232C6.42225 3.20133 6.55325 2.91637 6.69687 2.65311C4.30541 3.5211 2.54373 5.70223 2.28332 8.32499ZM8.99999 0.899994C4.52649 0.899994 0.899994 4.52649 0.899994 8.99999C0.899994 13.4735 4.52649 17.1 8.99999 17.1C13.4735 17.1 17.1 13.4735 17.1 8.99999C17.1 4.52649 13.4735 0.899994 8.99999 0.899994ZM8.99999 2.24999C8.84547 2.24999 8.62714 2.32677 8.3554 2.61854C8.08273 2.91129 7.80611 3.37171 7.55973 3.99713C7.12492 5.10089 6.82537 6.61351 6.76235 8.32499H11.2376C11.1746 6.61351 10.8751 5.10089 10.4403 3.99713C10.1939 3.37171 9.91726 2.91129 9.64459 2.61854C9.37284 2.32677 9.15451 2.24999 8.99999 2.24999ZM12.5885 8.32499C12.5251 6.47481 12.2028 4.78803 11.6963 3.50232C11.5777 3.20133 11.4467 2.91637 11.3031 2.65311C13.6946 3.5211 15.4563 5.70223 15.7167 8.32499H12.5885ZM11.2376 9.67499H6.76235C6.82537 11.3865 7.12492 12.8991 7.55973 14.0029C7.80611 14.6283 8.08273 15.0887 8.3554 15.3815C8.62714 15.6732 8.84547 15.75 8.99999 15.75C9.15451 15.75 9.37284 15.6732 9.64459 15.3815C9.91726 15.0887 10.1939 14.6283 10.4403 14.0029C10.8751 12.8991 11.1746 11.3865 11.2376 9.67499ZM11.3031 15.3469C11.4467 15.0836 11.5777 14.7987 11.6963 14.4977C12.2028 13.212 12.5251 11.5252 12.5885 9.67499H15.7167C15.4563 12.2978 13.6946 14.4789 11.3031 15.3469ZM6.69687 15.3469C6.55325 15.0836 6.42225 14.7987 6.30368 14.4977C5.79719 13.212 5.47493 11.5252 5.41151 9.67499H2.28332C2.54373 12.2978 4.30541 14.4789 6.69687 15.3469Z" fill="black"/>
</g>
<defs>
<clipPath id="clip0_96_472">
<rect width="18" height="18" fill="white"/>
</clipPath>
</defs>
</svg>
