<svg width="18" height="18" viewBox="0 0 18 18" fill="none" xmlns="http://www.w3.org/2000/svg">
<path id="Icon" fill-rule="evenodd" clip-rule="evenodd" d="M11.8277 2.67476C10.2657 1.10841 7.73425 1.10841 6.17234 2.67476C4.60925 4.24229 4.60925 6.78462 6.17234 8.35215L9 11.1878L11.8277 8.35215C13.3908 6.78462 13.3908 4.24229 11.8277 2.67476ZM9.53152 12.7791L8.46889 12.7796L5.11018 9.41131C2.96331 7.25834 2.96331 3.76857 5.11018 1.6156C7.25822 -0.538535 10.7418 -0.538535 12.8898 1.6156C15.0367 3.76857 15.0367 7.25834 12.8898 9.41131C12.8898 9.41131 10.843 11.4639 9.53152 12.7791ZM9.53152 12.7791C9.39092 12.9204 9.19928 13 9 13C8.80072 13 8.60961 12.9207 8.46889 12.7796L9.53152 12.7791ZM7.50001 5.5C7.50001 4.67157 8.17158 4 9 4C9.82842 4 10.5 4.67157 10.5 5.5C10.5 6.32843 9.82842 7 9 7C8.17158 7 7.50001 6.32843 7.50001 5.5ZM1.53713 10.0095C1.94608 10.0753 2.22426 10.4602 2.15847 10.8691L1.70581 13.6826C1.60143 14.3313 1.53181 14.7685 1.50826 15.1062C1.48527 15.436 1.51411 15.5885 1.55254 15.6849C1.65868 15.951 1.86156 16.1812 2.13456 16.3297C2.24223 16.3882 2.41068 16.4408 2.76263 16.4699C3.12067 16.4994 3.5883 16.5 4.27296 16.5H13.727C14.4117 16.5 14.8793 16.4994 15.2374 16.4699C15.5893 16.4408 15.7578 16.3882 15.8654 16.3297C16.1384 16.1812 16.3413 15.951 16.4475 15.6849C16.4859 15.5885 16.5147 15.436 16.4917 15.1062C16.4682 14.7685 16.3986 14.3313 16.2942 13.6826L15.8415 10.8691C15.7757 10.4602 16.0539 10.0753 16.4629 10.0095C16.8718 9.94373 17.2567 10.2219 17.3225 10.6309L17.7806 13.4782C17.8781 14.0844 17.9593 14.5887 17.9881 15.0019C18.018 15.4308 17.9994 15.8428 17.8407 16.2406C17.6008 16.8419 17.153 17.337 16.582 17.6475C16.2088 17.8504 15.8009 17.9285 15.3607 17.9648C14.9336 18 14.4038 18 13.759 18H4.24096C3.59621 18 3.06637 18 2.63929 17.9648C2.19908 17.9285 1.79116 17.8504 1.41804 17.6475C0.847049 17.337 0.399155 16.8419 0.159295 16.2406C0.000615162 15.8428 -0.0180064 15.4308 0.0119017 15.0019C0.0407167 14.5887 0.121864 14.0844 0.219413 13.4782L0.67752 10.6309C0.743317 10.2219 1.12818 9.94373 1.53713 10.0095Z" fill="black"/>
</svg>
