<svg width="18" height="18" viewBox="0 0 18 18" fill="none" xmlns="http://www.w3.org/2000/svg">
<g id="wifi">
<path id="Icon" fill-rule="evenodd" clip-rule="evenodd" d="M9 3.14999C6.28773 3.14999 3.65597 3.91357 2.0195 5.3455C1.73894 5.59099 1.3125 5.56256 1.06702 5.28201C0.821529 5.00145 0.849956 4.57501 1.13051 4.32953C3.09403 2.61142 6.08728 1.79998 9 1.79999C11.9127 1.79999 14.906 2.61143 16.8695 4.32955C17.15 4.57504 17.1785 5.00148 16.933 5.28203C16.6875 5.56258 16.2611 5.59101 15.9805 5.34552C14.344 3.91358 11.7123 3.14999 9 3.14999ZM9.00001 6.74999C7.22106 6.75 5.48283 7.32725 4.28111 8.42879C4.0063 8.68069 3.57932 8.66211 3.32742 8.3873C3.07552 8.11249 3.09409 7.68551 3.3689 7.43361C4.86718 6.06024 6.95394 5.4 9 5.39999C11.0461 5.39998 13.1328 6.0602 14.6311 7.43362C14.9059 7.68552 14.9245 8.11251 14.6726 8.38731C14.4207 8.66212 13.9937 8.68068 13.7189 8.42878C12.5172 7.32722 10.7789 6.74998 9.00001 6.74999ZM9 10.35C8.03227 10.35 7.06683 10.6884 6.29449 11.3642C6.01394 11.6097 5.5875 11.5813 5.34201 11.3007C5.09653 11.0202 5.12496 10.5937 5.40552 10.3482C6.43317 9.44904 7.71774 8.99998 9.00001 8.99999C10.2823 8.99999 11.5668 9.44906 12.5945 10.3483C12.8751 10.5938 12.9035 11.0202 12.658 11.3008C12.4125 11.5813 11.9861 11.6097 11.7055 11.3642C10.9332 10.6884 9.96773 10.35 9 10.35ZM9 13.95C8.75147 13.95 8.55 14.1515 8.55 14.4C8.55 14.6485 8.75147 14.85 9 14.85C9.24853 14.85 9.45 14.6485 9.45 14.4C9.45 14.1515 9.24853 13.95 9 13.95ZM7.2 14.4C7.2 13.4059 8.00589 12.6 9 12.6C9.99412 12.6 10.8 13.4059 10.8 14.4C10.8 15.3941 9.99412 16.2 9 16.2C8.00589 16.2 7.2 15.3941 7.2 14.4Z" fill="black"/>
</g>
</svg>
