<svg width="27" height="26" viewBox="0 0 27 26" fill="none" xmlns="http://www.w3.org/2000/svg">
<path fill-rule="evenodd" clip-rule="evenodd" d="M26.3187 13.1238C26.3187 12.2139 26.2333 11.339 26.0746 10.4991H13.4279V15.4628H20.6546C20.3433 17.0668 19.3972 18.4259 17.9751 19.3358V22.5556H22.3148C24.8538 20.3216 26.3187 17.0318 26.3187 13.1238Z" fill="#4285F4"/>
<path fill-rule="evenodd" clip-rule="evenodd" d="M13.4277 25.6643C17.0532 25.6643 20.0928 24.5153 22.3146 22.5554L17.9749 19.3357C16.7725 20.1056 15.2344 20.5606 13.4277 20.5606C9.93035 20.5606 6.97011 18.3033 5.91418 15.2702H1.42804V18.5949C3.63754 22.7887 8.17862 25.6643 13.4277 25.6643Z" fill="#34A853"/>
<path fill-rule="evenodd" clip-rule="evenodd" d="M5.91439 15.2706C5.64583 14.5007 5.49324 13.6782 5.49324 12.8325C5.49324 11.9867 5.64583 11.1643 5.91439 10.3943V7.06961H1.42824C0.518806 8.80197 0 10.7618 0 12.8325C0 14.9031 0.518806 16.863 1.42824 18.5953L5.91439 15.2706Z" fill="#FBBC05"/>
<path fill-rule="evenodd" clip-rule="evenodd" d="M13.4277 5.10374C15.3992 5.10374 17.1692 5.75119 18.5608 7.02275L22.4122 3.34222C20.0867 1.27156 17.0471 0 13.4277 0C8.17862 0 3.63754 2.8756 1.42804 7.06941L5.91418 10.3941C6.97011 7.36106 9.93035 5.10374 13.4277 5.10374Z" fill="#EA4335"/>
</svg>
