<svg width="18" height="18" viewBox="0 0 18 18" fill="none" xmlns="http://www.w3.org/2000/svg">
<path id="Icon" d="M7.437 1.00564C7.85086 0.129331 8.89685 -0.264595 9.78037 0.191074C10.1257 0.369157 10.3985 0.657622 10.5629 1.00564L12.3482 4.78599C12.3898 4.87405 12.4613 4.91905 12.5255 4.9288L16.5177 5.53501C17.4915 5.68287 18.1133 6.60755 17.9825 7.5484C17.9296 7.92846 17.7578 8.28489 17.4871 8.56058L14.5984 11.5032C14.5379 11.5647 14.5029 11.663 14.5191 11.7665L15.2401 15.9239C15.4008 16.903 14.7151 17.808 13.788 17.9741C13.4037 18.043 13.0097 17.977 12.6686 17.7896L9.09793 15.8279C9.0354 15.7935 8.96447 15.7935 8.90194 15.8279L5.33123 17.7896C4.46031 18.2681 3.40376 17.9034 2.96767 17.0365C2.79485 16.693 2.7363 16.3025 2.79843 15.9239L3.48038 11.7689C3.49751 11.6645 3.4624 11.5652 3.40151 11.5032L0.512752 8.56058C-0.159161 7.87615 -0.171952 6.76632 0.481677 6.06558C0.745583 5.78266 1.09641 5.59358 1.48217 5.53501L5.47434 4.9288C5.53853 4.91905 5.61006 4.87405 5.65165 4.78599L7.437 1.00564Z" fill="#FFC328"/>
</svg>
