<svg width="18" height="17" viewBox="0 0 18 17" fill="none" xmlns="http://www.w3.org/2000/svg">
<path id="Icon" fill-rule="evenodd" clip-rule="evenodd" d="M0 4.13162C0 1.84979 1.9586 0 4.37465 0C4.8139 0 5.23515 0.164794 5.54574 0.45813L5.55111 0.463204L5.64743 0.556281C5.70854 0.615378 5.79582 0.699899 5.9007 0.801773C6.11033 1.00541 6.39079 1.2789 6.67323 1.55751C6.95493 1.83537 7.2417 2.12138 7.46268 2.34903C7.57247 2.46213 7.67095 2.56588 7.74584 2.64915C7.78261 2.69003 7.82001 2.73296 7.85211 2.77327C7.86788 2.79307 7.88824 2.81956 7.90843 2.84952L7.90919 2.85065C7.92177 2.86928 7.96819 2.93809 8.00014 3.03093C8.11434 3.36288 8.11434 3.72045 8.00014 4.0524C7.94675 4.20759 7.84394 4.33362 7.80567 4.38053L7.80434 4.38217C7.7463 4.45334 7.67697 4.52896 7.60725 4.60187C7.46709 4.74846 7.28767 4.92314 7.11008 5.09532L7.08277 5.12179C6.71393 5.47936 6.37185 5.81098 6.20973 6.01456C5.96807 6.31802 5.91682 6.82104 6.03295 7.12494C6.03295 7.12494 6.03314 7.12532 6.03404 7.12733C6.03876 7.13788 6.23021 7.5148 6.27133 7.59835C6.20258 7.47031 6.31523 7.68754 6.27133 7.59835C6.41089 7.85829 6.5805 8.15135 6.7381 8.37908C7.46631 9.43131 8.01376 9.9337 9.13409 10.64C9.42469 10.8232 9.80046 11.0164 10.1337 11.1735C10.298 11.2509 10.4463 11.3169 10.5611 11.3657C10.6697 11.4119 10.7269 11.4335 10.74 11.4385C10.7423 11.4393 10.7428 11.4396 10.7428 11.4396C11.0371 11.5307 11.3568 11.5155 11.6398 11.3967C11.7953 11.3315 12.2029 11.0854 12.6721 10.7949C12.7073 10.7731 12.7425 10.7513 12.7776 10.7295C12.9574 10.6181 13.1331 10.5093 13.2772 10.4229C13.3631 10.3714 13.446 10.323 13.5167 10.2845C13.5518 10.2655 13.5911 10.2449 13.6307 10.2264C13.6566 10.2143 13.7343 10.178 13.829 10.1558C14.1055 10.0911 14.3945 10.0911 14.671 10.1558C14.7946 10.1848 14.9127 10.2451 14.9544 10.2664C14.9563 10.2674 14.9596 10.269 14.9596 10.269C15.0277 10.3037 15.106 10.3467 15.1866 10.3925C15.3492 10.4849 15.5478 10.6035 15.7456 10.7238C16.1419 10.9649 16.5553 11.2252 16.7123 11.324C17.5165 11.8304 18 12.6831 18 13.5959C18 15.4759 16.3863 17 14.3957 17H11.9156C10.7009 17 9.50398 16.7237 8.42625 16.1944C5.18358 14.6019 2.5392 12.1044 0.853012 9.04188C0.292589 8.02402 0 6.89364 0 5.74639V4.13162ZM4.48345 1.45835C4.45433 1.43164 4.41531 1.41667 4.37465 1.41667C2.78703 1.41667 1.5 2.63219 1.5 4.13162V5.74639C1.5 6.66611 1.73456 7.5723 2.18384 8.3883C3.7278 11.1925 6.14912 13.4793 9.11828 14.9375C9.98227 15.3618 10.9418 15.5833 11.9156 15.5833H14.3957C15.5579 15.5833 16.5 14.6935 16.5 13.5959C16.5 13.1568 16.2676 12.7467 15.8807 12.5031C15.7237 12.4042 15.319 12.1494 14.9334 11.9148C14.7399 11.7972 14.5564 11.6877 14.4135 11.6065C14.3508 11.5709 14.3008 11.5435 14.2639 11.5243C14.2572 11.524 14.2505 11.5239 14.2438 11.524C14.2031 11.5467 14.1488 11.5783 14.0809 11.619C13.9473 11.6991 13.7835 11.8006 13.6033 11.9122C13.5676 11.9344 13.5313 11.9569 13.4944 11.9797C13.0866 12.2321 12.5462 12.5666 12.2488 12.6914C11.626 12.9526 10.9228 12.9862 10.2753 12.7857C10.1352 12.7423 9.80554 12.6021 9.4639 12.4411C9.10604 12.2724 8.66708 12.0489 8.30129 11.8183C7.02626 11.0144 6.33002 10.3788 5.48252 9.15416C5.09602 8.5957 4.69178 7.7884 4.62202 7.60586C4.34788 6.88847 4.44154 5.87804 5.01095 5.16302C5.23356 4.8835 5.63483 4.49492 5.96267 4.17746C5.98744 4.15347 6.0118 4.12989 6.03562 4.10679C6.21718 3.93076 6.37622 3.77559 6.49399 3.65241C6.53252 3.61212 6.5627 3.57931 6.58547 3.55348C6.58558 3.55153 6.58565 3.54957 6.58571 3.54762C6.52999 3.48645 6.45257 3.40481 6.35703 3.30639C6.14721 3.09025 5.8694 2.81306 5.58977 2.53723C5.3109 2.26215 5.03331 1.99146 4.82523 1.78933C4.72125 1.68832 4.63475 1.60456 4.5743 1.5461L4.48345 1.45835Z" fill="black"/>
</svg>
